<?xml version="1.0" standalone="no"?>
<!DOCTYPE svg PUBLIC "-//W3C//DTD SVG 20010904//EN"
 "http://www.w3.org/TR/2001/REC-SVG-20010904/DTD/svg10.dtd">
<svg version="1.0" xmlns="http://www.w3.org/2000/svg"
 width="1000.000000pt" height="1000.000000pt" viewBox="0 0 1000.000000 1000.000000"
 preserveAspectRatio="xMidYMid meet">
<metadata>
Created by potrace 1.11, written by Peter Selinger 2001-2013
</metadata>
<g transform="translate(0.000000,1000.000000) scale(0.100000,-0.100000)"
fill="#000000" stroke="none">
<path d="M0 5000 l0 -5000 5000 0 5000 0 0 5000 0 5000 -5000 0 -5000 0 0
-5000z m5152 2024 c-74 -231 -75 -235 -56 -253 18 -18 24 -17 199 39 99 31
183 55 188 53 4 -2 7 -125 7 -274 0 -148 -3 -269 -7 -269 -5 0 -89 43 -188 95
-176 93 -180 95 -198 76 -19 -19 -17 -25 93 -362 122 -374 130 -415 96 -517
-34 -100 -136 -195 -241 -223 -22 -6 -74 -9 -115 -7 -61 4 -87 11 -138 38
-114 60 -173 154 -180 286 l-4 82 113 340 c111 335 113 341 95 361 l-19 21
-182 -95 c-101 -52 -186 -95 -189 -95 -9 0 -7 538 2 543 4 3 88 -21 187 -53
176 -56 180 -57 199 -39 20 18 19 21 -52 246 -40 125 -72 231 -72 236 0 4 121
7 269 7 l268 0 -75 -236z m-1682 -495 c187 -83 233 -328 88 -476 -183 -186
-501 -55 -502 207 0 214 218 355 414 269z m3210 0 c58 -26 115 -81 148 -144
21 -41 26 -63 26 -125 0 -125 -51 -208 -161 -262 -147 -72 -305 -23 -390 121
-20 32 -27 62 -31 116 -6 92 15 157 70 220 87 99 217 127 338 74z m-2487 -225
c60 -20 131 -84 165 -148 22 -43 27 -64 27 -131 0 -67 -5 -88 -27 -131 -95
-181 -331 -220 -470 -77 -62 65 -80 105 -86 188 -6 100 21 168 93 234 30 27
74 56 97 64 57 20 144 21 201 1z m1730 -4 c161 -60 234 -252 156 -408 -111
-223 -428 -213 -533 17 -14 33 -20 66 -20 116 0 209 201 348 397 275z m-3105
-171 c216 -104 213 -419 -6 -526 -116 -57 -259 -29 -346 68 -149 166 -71 424
146 484 69 19 128 11 206 -26z m4517 14 c66 -21 145 -100 168 -167 25 -73 22
-170 -7 -231 -61 -129 -209 -199 -342 -160 -140 41 -220 146 -218 290 0 81 24
136 83 198 84 89 186 112 316 70z m-4702 -756 c97 -57 147 -148 147 -266 -1
-112 -59 -203 -165 -259 -66 -34 -176 -37 -246 -5 -60 27 -125 92 -152 152
-44 97 -21 239 51 314 72 76 129 98 238 94 66 -3 89 -8 127 -30z m4912 9 c29
-13 70 -45 98 -75 76 -85 96 -189 57 -294 -78 -209 -346 -261 -494 -96 -53 59
-76 121 -76 204 0 113 82 233 184 269 66 23 172 20 231 -8z m-3934 -101 c120
-103 198 -229 220 -358 15 -94 0 -213 -44 -346 l-33 -98 43 33 c40 31 125 64
162 64 35 0 92 -22 121 -47 66 -55 92 -154 70 -269 l-13 -68 -31 36 c-66 77
-136 96 -196 56 -43 -29 -70 -83 -77 -151 -25 -243 310 -424 650 -352 241 51
349 191 373 481 l7 87 -47 -5 c-108 -13 -295 -144 -381 -268 -16 -23 -30 -38
-32 -34 -1 5 -13 144 -27 309 -14 165 -28 317 -31 338 l-5 37 72 -60 c87 -73
188 -125 283 -145 88 -19 155 -20 155 -2 0 37 -137 244 -257 390 l-65 77 427
0 427 0 -34 -41 c-134 -163 -266 -358 -283 -418 l-7 -24 74 6 c142 12 267 68
385 171 l55 49 -6 -54 c-6 -51 -56 -611 -56 -626 0 -4 -38 34 -85 84 -123 132
-255 213 -346 213 l-31 0 7 -77 c21 -244 88 -369 236 -442 264 -129 654 -46
761 163 44 87 32 214 -26 272 -62 62 -135 55 -205 -21 -40 -44 -42 -44 -50
-23 -17 45 -22 134 -11 185 37 171 206 221 356 107 25 -20 44 -30 41 -22 -29
70 -68 209 -77 275 -17 129 10 254 79 361 33 51 182 202 199 202 26 0 119
-167 147 -265 53 -181 -15 -391 -183 -567 -20 -21 -34 -38 -32 -38 3 0 27 7
54 15 62 19 89 19 157 -1 135 -40 180 -173 117 -341 -21 -57 -33 -65 -43 -32
-10 29 -63 87 -96 105 -113 58 -244 -75 -225 -230 18 -157 157 -268 317 -253
102 9 230 90 319 202 48 60 160 240 160 257 0 28 -119 -11 -219 -72 -46 -28
-85 -49 -86 -48 -5 7 189 637 195 631 3 -5 14 -35 24 -68 10 -33 29 -84 42
-112 26 -60 92 -163 104 -163 29 0 39 211 15 340 -7 41 -12 76 -11 77 2 3 388
-136 394 -141 2 -3 -25 -49 -61 -103 -217 -329 -358 -681 -508 -1267 l-10 -38
-52 5 c-29 2 -173 19 -322 35 -553 63 -965 85 -1600 85 -476 0 -729 -9 -1125
-39 -199 -15 -682 -65 -788 -83 -29 -4 -54 -5 -56 -2 -2 3 -20 67 -39 142
-125 474 -283 858 -472 1145 -42 64 -74 118 -72 120 6 6 391 142 394 140 2 -1
-4 -40 -12 -87 -8 -46 -15 -116 -15 -156 0 -79 17 -173 30 -173 26 0 105 148
146 270 15 46 30 78 33 70 16 -48 188 -625 187 -628 -2 -1 -40 21 -86 48 -79
48 -161 80 -202 80 -16 0 -14 -8 16 -67 178 -351 469 -497 666 -334 75 62 115
182 91 276 -23 92 -76 146 -150 153 -58 5 -103 -23 -146 -90 -16 -26 -33 -47
-37 -47 -3 -1 -17 29 -29 67 -59 177 -2 301 153 334 44 9 66 9 115 -3 l60 -15
-60 71 c-205 244 -222 475 -53 739 20 31 40 56 45 56 5 0 33 -20 62 -45z"/>
</g>
</svg>
